# xmcd CD database file
#
# Track frame offsets:
#	150
#	10049
#	21924
#	33095
#	49842
#	63247
#	75383
#	89531
#	102100
#	112173
#	125127
#	139236
#	153354
#	162543
#	173610
#
# Disc length: 2505 seconds
#
# Revision: 0
# Processed by: cddbd v1.5.2PL0 Copyright (c) Steve Scherf et al.
# Submitted via: CDex 1.51
#
DISCID=bd09c70f
DTITLE=John Lewis Trio - The Billy Banks Sessions
DYEAR=2011
DGENRE=Country
TTITLE0=Making Believe
TTITLE1=Lay Back and Be Cool
TTITLE2=Belgium Bars
TTITLE3=Not Quite The Not
TTITLE4=Drunk
TTITLE5=Rollin'
TTITLE6=Honky Tonk Song
TTITLE7=Got No Time
TTITLE8=Opinions
TTITLE9=He'll Have to Go
TTITLE10=Black Cat
TTITLE11=The One I Love
TTITLE12=Looking For Money
TTITLE13=Mmm Ba Ba
TTITLE14=Hard Travelling
EXTD=YEAR: 2011
EXTT0=
EXTT1=
EXTT2=
EXTT3=
EXTT4=
EXTT5=
EXTT6=
EXTT7=
EXTT8=
EXTT9=
EXTT10=
EXTT11=
EXTT12=
EXTT13=
EXTT14=
PLAYORDER=
